<svg width="30" height="30" viewBox="0 0 30 30" fill="none" xmlns="http://www.w3.org/2000/svg">
<path fill-rule="evenodd" clip-rule="evenodd" d="M0 15C0 6.71573 6.71573 0 15 0C23.2843 0 30 6.71573 30 15C30 23.2843 23.2843 30 15 30C6.71573 30 0 23.2843 0 15Z" fill="#666666"/>
<path fill-rule="evenodd" clip-rule="evenodd" d="M21.1006 12.289C21.1056 12.416 21.1096 12.543 21.1096 12.672C21.1096 16.576 18.1366 21.078 12.7026 21.078C11.0346 21.078 9.48058 20.588 8.17358 19.75C8.40658 19.777 8.64158 19.791 8.87958 19.791C10.2636 19.791 11.5376 19.318 12.5486 18.525C11.2556 18.502 10.1656 17.648 9.78758 16.475C9.96858 16.51 10.1546 16.527 10.3446 16.527C10.6136 16.527 10.8746 16.492 11.1226 16.424C9.77158 16.152 8.75158 14.959 8.75158 13.527V13.49C9.15058 13.711 9.60758 13.844 10.0916 13.859C9.29858 13.33 8.77758 12.426 8.77758 11.4C8.77758 10.859 8.92258 10.352 9.17658 9.916C10.6326 11.703 12.8106 12.879 15.2656 13.002C15.2156 12.785 15.1906 12.56 15.1906 12.328C15.1906 10.697 16.5126 9.375 18.1446 9.375C18.9936 9.375 19.7616 9.732 20.2996 10.307C20.9736 10.176 21.6056 9.93 22.1766 9.59C21.9556 10.281 21.4886 10.859 20.8766 11.225C21.4746 11.154 22.0446 10.996 22.5756 10.76C22.1776 11.352 21.6776 11.873 21.1006 12.289Z" fill="white"/>
</svg>
